M48
INCH,TZ
T1C0.0300
T2C0.0394
T3C0.0472
%
G90
G05
T1
X73000Y-44200
X74000Y-44200
X75000Y-44200
X76000Y-44200
X62060Y-43620
X63060Y-43620
X64060Y-43620
X65060Y-43620
X66060Y-43620
X67060Y-43620
X68060Y-43620
X69060Y-43620
X70060Y-43620
X37600Y-32100
X37600Y-33100
X37600Y-34100
X37600Y-35100
X37600Y-36100
X37600Y-37100
X37600Y-38100
X37600Y-39100
X37600Y-40100
X37600Y-41100
X37600Y-42100
X37600Y-43100
X37600Y-44100
X37600Y-45100
X37600Y-46100
X47600Y-32100
X47600Y-33100
X47600Y-34100
X47600Y-35100
X47600Y-36100
X47600Y-37100
X47600Y-38100
X47600Y-39100
X47600Y-40100
X47600Y-41100
X47600Y-42100
X47600Y-43100
X47600Y-44100
X47600Y-45100
X47600Y-46100
X52100Y-31300
X53100Y-31300
X54100Y-31300
X55100Y-31300
X56100Y-31300
X76160Y-36600
X76160Y-37700
X51720Y-40340
X52720Y-40340
X53720Y-40340
X54720Y-40340
X55720Y-40340
X56720Y-40340
T2
X62000Y-46000
X67906Y-46000
T3
X63100Y-48200
X67100Y-48200
T0
M30
