M48
INCH,TZ
T1C0.0300
%
G90
G05
T1
X47300Y-51420
X48400Y-51420
X48460Y-21500
X48460Y-22500
X48460Y-23500
X48460Y-24500
X48460Y-25500
X41260Y-30800
X41260Y-31800
X41260Y-32800
X41260Y-33800
X41260Y-34800
X41260Y-35800
X41260Y-36800
X41260Y-37800
X41260Y-38800
X41260Y-39800
X41260Y-40800
X41260Y-41800
X41260Y-42800
X41260Y-43800
X41260Y-44800
X51260Y-30800
X51260Y-31800
X51260Y-32800
X51260Y-33800
X51260Y-34800
X51260Y-35800
X51260Y-36800
X51260Y-37800
X51260Y-38800
X51260Y-39800
X51260Y-40800
X51260Y-41800
X51260Y-42800
X51260Y-43800
X51260Y-44800
X54400Y-50480
X55400Y-50480
X56400Y-50480
X57400Y-50480
X56180Y-33280
X57180Y-33280
X58180Y-33280
X59180Y-33280
X60180Y-33280
X61180Y-33280
X62180Y-33280
X63180Y-33280
X64180Y-33280
X56100Y-36100
X56100Y-37100
X56100Y-38100
X56100Y-39100
X56100Y-41100
X56100Y-42100
X56100Y-43100
T0
M30
